<svg enable-background="new 0 0 45.58 45.58" fill="#f75dfc" height="45.58" viewBox="0 0 45.58 45.58" width="45.58" xmlns="http://www.w3.org/2000/svg"><path d="m45.506 33.532c-1.741-7.42-7.161-17.758-23.554-19.942v-6.543c0-1.364-.826-2.593-2.087-3.113-1.261-.521-2.712-.229-3.675.737l-14.885 14.959c-1.739 1.748-1.74 4.572-.001 6.32l14.886 14.959c.961.966 2.415 1.258 3.676.737s2.087-1.75 2.087-3.113v-6.331c5.593.007 13.656.743 19.392 4.313.953.594 2.168.555 3.08-.101.91-.652 1.338-1.79 1.081-2.882z"/></svg>