<svg enable-background="new 0 0 32 32" viewBox="0 0 32 32" xmlns="http://www.w3.org/2000/svg"><path d="m5 12c-.6 0-1-.4-1-1v-6c0-.6.4-1 1-1h6c.6 0 1 .4 1 1s-.4 1-1 1h-5v5c0 .6-.4 1-1 1z"/><path d="m27 12c-.6 0-1-.4-1-1v-5h-5c-.6 0-1-.4-1-1s.4-1 1-1h6c.6 0 1 .4 1 1v6c0 .6-.4 1-1 1z"/><path d="m27 28h-6c-.6 0-1-.4-1-1s.4-1 1-1h5v-5c0-.6.4-1 1-1s1 .4 1 1v6c0 .6-.4 1-1 1z"/><path d="m11 28h-6c-.6 0-1-.4-1-1v-6c0-.6.4-1 1-1s1 .4 1 1v5h5c.6 0 1 .4 1 1s-.4 1-1 1z"/><path d="m5 28c-.3 0-.5-.1-.7-.3-.4-.4-.4-1 0-1.4l22-22c.4-.4 1-.4 1.4 0s.4 1 0 1.4l-22 22c-.2.2-.4.3-.7.3z"/><path d="m27 28c-.3 0-.5-.1-.7-.3l-22-22c-.4-.4-.4-1 0-1.4s1-.4 1.4 0l22 22c.4.4.4 1 0 1.4-.2.2-.4.3-.7.3z"/></svg>